<svg xmlns="http://www.w3.org/2000/svg" viewBox="0 0 123.503 30"><defs><style>.a{fill:#ceff00;}</style></defs><g transform="translate(-529.466 -709)"><path class="a" d="M623.9,581.926v14.926h-5.6V567h5.6" transform="translate(-1.712 142)"/><g transform="translate(529.466 709)"><path class="a" d="M350.724,567v3.278a14.926,14.926,0,1,0,0,23.3v3.278h5.594V567Zm-9.332,24.255a9.329,9.329,0,1,1,9.332-9.329A9.328,9.328,0,0,1,341.392,591.255Z" transform="translate(-326.466 -567)"/></g><g transform="translate(565.254 709)"><path class="a" d="M461.274,567v5.6a9.329,9.329,0,0,0-9.329,9.329v14.926h-5.6V567h5.6v3.278A14.856,14.856,0,0,1,461.274,567Z" transform="translate(-446.348 -567)"/></g><path class="a" d="M530.1,573.091v9.329a9.329,9.329,0,0,0,9.329,9.329v5.6A14.926,14.926,0,0,1,524.5,582.42v-9.329h-9.329v-5.6h24.255v5.6Z" transform="translate(70.627 141.653)"/><path class="a" d="M673.85,581.926a9.328,9.328,0,0,0,9.329,9.329v5.6a14.9,14.9,0,0,1-12.126-6.224,14.9,14.9,0,0,1-12.129,6.224v-5.6a9.329,9.329,0,1,0,0-18.658V567a14.9,14.9,0,0,1,12.129,6.227A14.9,14.9,0,0,1,683.179,567v5.6A9.331,9.331,0,0,0,673.85,581.926Z" transform="translate(-30.21 142)"/></g></svg>