<svg xmlns="http://www.w3.org/2000/svg" viewBox="0 0 32 20"><defs><style>.a{opacity:1;}.b{fill:#ceff00;}</style></defs><g class="a" transform="translate(0 -81.247)"><path class="b" d="M28.9,84.077H20.88v-2H28.9v2Zm-13.356,8.2a5.307,5.307,0,0,1,.776,2.93,5.854,5.854,0,0,1-.885,3.191,5.525,5.525,0,0,1-1.408,1.571,5.431,5.431,0,0,1-2.247,1,13.832,13.832,0,0,1-2.811.27H0v-20H9.616c2.424.04,4.142.745,5.157,2.13a5.105,5.105,0,0,1,.911,3.054,4.465,4.465,0,0,1-.92,2.944,4.7,4.7,0,0,1-1.516,1.138A4.424,4.424,0,0,1,15.542,92.281ZM4.592,89.132H8.805a3.978,3.978,0,0,0,2.1-.5,1.893,1.893,0,0,0,.808-1.758,1.791,1.791,0,0,0-1.069-1.845A7.49,7.49,0,0,0,8.3,84.72H4.592Zm7.531,5.793a2.146,2.146,0,0,0-1.266-2.143,4.97,4.97,0,0,0-1.991-.339H4.592v5.33H8.8a4.657,4.657,0,0,0,2.016-.351A2.524,2.524,0,0,0,12.123,94.925Zm19.75-3.254A18.9,18.9,0,0,1,32,94.516H21.612A3.429,3.429,0,0,0,23.1,97.538a3.742,3.742,0,0,0,2.056.538,2.9,2.9,0,0,0,2.835-1.64H31.8a4.663,4.663,0,0,1-1.382,2.589,6.911,6.911,0,0,1-5.364,2.092,7.763,7.763,0,0,1-5.024-1.763q-2.171-1.767-2.175-5.739A7.778,7.778,0,0,1,19.818,87.9a6.862,6.862,0,0,1,5.1-1.987,8.1,8.1,0,0,1,3.354.67,5.783,5.783,0,0,1,2.462,2.121A7.09,7.09,0,0,1,31.873,91.671Zm-3.746.373a3.135,3.135,0,0,0-1-2.264A3.241,3.241,0,0,0,24.92,89a2.949,2.949,0,0,0-2.225.822,3.869,3.869,0,0,0-.994,2.218h6.426Z"/></g></svg>
