<svg xmlns="http://www.w3.org/2000/svg" viewBox="0 0 25.455 20"><defs><style>.a{opacity:1;}.b{fill:#ceff00;}</style></defs><g class="a" transform="translate(0 -54.82)"><g transform="translate(0 54.82)"><path class="b" d="M2.443,60.985q.483.341,2.912,2.024T9.077,65.6q.142.1.6.433t.767.54q.305.206.739.462a4.286,4.286,0,0,0,.817.383,2.251,2.251,0,0,0,.71.128h.029a2.253,2.253,0,0,0,.71-.128,4.29,4.29,0,0,0,.817-.383q.433-.256.739-.462t.767-.54q.462-.334.6-.433,1.307-.909,6.648-4.617a6.748,6.748,0,0,0,1.733-1.747,3.751,3.751,0,0,0,.7-2.145,2.292,2.292,0,0,0-2.273-2.273H2.273a2.029,2.029,0,0,0-1.683.739A2.867,2.867,0,0,0,0,57.405a3.318,3.318,0,0,0,.781,1.939A7.051,7.051,0,0,0,2.443,60.985Z" transform="translate(0 -54.82)"/><path class="b" d="M24.034,185.673q-4.659,3.153-7.074,4.9-.81.6-1.314.93a8.108,8.108,0,0,1-1.342.682,4.087,4.087,0,0,1-1.562.348h-.029a4.089,4.089,0,0,1-1.562-.348,8.112,8.112,0,0,1-1.342-.682q-.5-.334-1.314-.93-1.918-1.406-7.06-4.9A7.524,7.524,0,0,1,0,184.437v11.278a2.188,2.188,0,0,0,.668,1.605,2.188,2.188,0,0,0,1.605.668H23.182a2.28,2.28,0,0,0,2.273-2.273V184.437A7.833,7.833,0,0,1,24.034,185.673Z" transform="translate(0 -177.988)"/></g></g></svg>
