<svg xmlns="http://www.w3.org/2000/svg" viewBox="0 0 35 20"><defs><style>.a{fill:#ceff00;}</style></defs><g transform="translate(0 -117.748)"><path class="a" d="M34.814,135.811a2.4,2.4,0,0,0-.119-.228,18.159,18.159,0,0,0-3.481-4.034l-.036-.037-.018-.018-.018-.018h-.018q-1.166-1.113-1.476-1.5a1.407,1.407,0,0,1-.256-1.479,13.783,13.783,0,0,1,1.64-2.391q.747-.967,1.184-1.551,3.153-4.2,2.734-5.366l-.109-.182a1.065,1.065,0,0,0-.565-.3,2.865,2.865,0,0,0-1.167-.046l-5.248.036a.68.68,0,0,0-.365.009l-.237.055-.091.046-.073.055a.81.81,0,0,0-.2.191,1.253,1.253,0,0,0-.182.319,29.823,29.823,0,0,1-1.95,4.106q-.674,1.132-1.239,1.962a9.438,9.438,0,0,1-.947,1.223,6.613,6.613,0,0,1-.693.63q-.31.238-.474.2c-.109-.024-.213-.049-.31-.073a1.213,1.213,0,0,1-.41-.447,2,2,0,0,1-.21-.712q-.054-.429-.064-.739t.009-.876q.019-.566.018-.767,0-.694.027-1.506t.046-1.287q.019-.475.018-1a4.224,4.224,0,0,0-.064-.83,2.844,2.844,0,0,0-.191-.584.983.983,0,0,0-.374-.438,2.1,2.1,0,0,0-.61-.246,12.107,12.107,0,0,0-2.46-.237,11.937,11.937,0,0,0-4.355.438,2.455,2.455,0,0,0-.692.547q-.328.4-.091.438a2.233,2.233,0,0,1,1.549.785l.109.219a3.5,3.5,0,0,1,.255.84,8.483,8.483,0,0,1,.164,1.332,14.228,14.228,0,0,1,0,2.281q-.091.949-.173,1.478a2.964,2.964,0,0,1-.246.858,3.621,3.621,0,0,1-.219.4.314.314,0,0,1-.091.091,1.363,1.363,0,0,1-.492.091,1.154,1.154,0,0,1-.62-.256,4.374,4.374,0,0,1-.756-.7,9.393,9.393,0,0,1-.884-1.25q-.492-.8-1.02-1.9l-.291-.529q-.273-.511-.747-1.487T7.4,119.539a1.2,1.2,0,0,0-.437-.584L6.87,118.9a1.247,1.247,0,0,0-.291-.155,1.932,1.932,0,0,0-.419-.119l-4.993.036a1.268,1.268,0,0,0-1.039.347l-.073.109a.591.591,0,0,0-.055.292,1.455,1.455,0,0,0,.109.493q1.093,2.574,2.378,4.964t2.232,3.851q.948,1.46,1.932,2.756t1.3,1.661q.319.366.5.548l.456.438a10.812,10.812,0,0,0,1.285,1.049,21.912,21.912,0,0,0,1.877,1.205,10.173,10.173,0,0,0,2.4.967,8.274,8.274,0,0,0,2.661.3h2.1a1.45,1.45,0,0,0,.966-.4l.073-.091a1.211,1.211,0,0,0,.137-.337,1.857,1.857,0,0,0,.064-.5,6.023,6.023,0,0,1,.118-1.414,3.723,3.723,0,0,1,.31-.949,2.333,2.333,0,0,1,.392-.538,1.584,1.584,0,0,1,.31-.265,1.188,1.188,0,0,1,.145-.064,1.155,1.155,0,0,1,1.03.283,6.052,6.052,0,0,1,1.112,1.059q.519.63,1.248,1.414a8.583,8.583,0,0,0,1.276,1.168l.364.219a4.433,4.433,0,0,0,.948.4,2.04,2.04,0,0,0,1.02.091l4.665-.073a2.111,2.111,0,0,0,1.075-.228.9.9,0,0,0,.456-.5,1.416,1.416,0,0,0,.009-.621A2.293,2.293,0,0,0,34.814,135.811Z" transform="translate(0 0)"/></g></svg>